<svg id="Capa_1" enable-background="new 0 0 497.522 497.522" height="512" viewBox="0 0 497.522 497.522" width="512" xmlns="http://www.w3.org/2000/svg"><g><path d="m375.589 459.984c-.779 0-1.571-.122-2.352-.38l-12.246-4.042c-.037-.012-.073-.024-.11-.037l-215.209-74.75-19.453-6.691c-3.917-1.348-6-5.615-4.652-9.532s5.62-5.998 9.531-4.653l19.475 6.699 215.177 74.739 12.189 4.023c3.934 1.298 6.069 5.539 4.771 9.473-1.041 3.153-3.972 5.151-7.121 5.151z" fill="#fdd79b"/></g><g><path d="m119.616 461.746c-2.971 0-5.782-1.777-6.96-4.702-1.546-3.842.315-8.211 4.158-9.758l14.422-5.803c.112-.045.225-.088.339-.127l215.209-74.75 18.775-6.68c3.9-1.39 8.191.65 9.58 4.552 1.388 3.903-.649 8.192-4.553 9.58l-18.828 6.699-215.091 74.71-14.254 5.736c-.917.368-1.865.543-2.797.543z" fill="#fdd79b"/></g><path d="m372.503 268.618 16.944 224.732c.17 2.252-1.611 4.172-3.869 4.172h-9.852c-1.868 0-3.472-1.332-3.814-3.168l-34.573-185.219c-.527-2.821-2.989-4.867-5.859-4.867h-165.438c-2.87 0-5.332 2.045-5.859 4.867l-34.573 185.219c-.343 1.837-1.946 3.168-3.814 3.168h-9.852c-2.258 0-4.039-1.92-3.869-4.172l16.944-224.732 9.017-60.137h234.668z" fill="#b9acac"/><path d="m389.762 209.515-42.211-182.314c-3.687-15.925-17.872-27.201-34.218-27.201h-129.144c-16.346 0-30.531 11.276-34.218 27.201l-42.211 182.314-7.743 29.034 41.716 17.385 245.98-3.876 12.946-15.783z" fill="#93d8de"/><g><g><path d="m389.762 209.515-4.502-19.446c-9.034 2.561-16.983 8.285-22.315 16.386l-2.74 4.163h-179.433c-15.314 0-26.642-14.253-23.184-29.172l35.745-154.245c3.687-15.925 17.872-27.201 34.219-27.201h-43.362c-16.346 0-30.531 11.276-34.218 27.201l-42.212 182.314-7.743 29.034 41.716 17.385.946-.015 245.034-3.861 12.947-15.783z" fill="#75cdd5"/><path d="m371.146 247.141h-242.907l-3.22 21.477-1.504 19.953c.502.013 249.951.012 250.493-.004l-1.504-19.949z" fill="#9e9797"/><path d="m372.383 268.618h-247.364c-11.925 0-23.051-5.996-29.608-15.957l-9.423-14.315c-5.677-8.624-3.82-20.4 4.609-26.364 8.814-6.236 20.97-3.892 26.858 5.054l8.3 12.61c.4.607 1.078.972 1.804.972h242.259c.727 0 1.405-.365 1.804-.972l8.027-12.194c5.678-8.626 17.232-11.575 26.042-6.188 9.211 5.632 11.86 17.72 5.972 26.665l-9.71 14.751c-6.568 9.98-17.623 15.938-29.57 15.938z" fill="#93d8de"/></g></g></svg>